HIERARCHY
ROOT Hips
{
	OFFSET 0.000000 0.000000 0.000000 
	CHANNELS 6 Xposition Yposition Zposition Yrotation Zrotation Xrotation 
	JOINT Lumbar
	{
		OFFSET 0.000000 0.000000 0.000000 
		CHANNELS 3 Zrotation Xrotation Yrotation
		JOINT Neck
		{
			OFFSET 0.000000 0.445665 0.000000 
			CHANNELS 3 Zrotation Xrotation Yrotation
			End Site
			{
				OFFSET 0.000000 0.227535 0.000000 
			}
		}
		JOINT RightShoulder
		{
			OFFSET 0.019635 0.377685 0.194865 
			CHANNELS 3 Zrotation Xrotation Yrotation
			JOINT RightElbow
			{
				OFFSET 0.000000 -0.243375 0.000000 
				CHANNELS 2 Zrotation Yrotation
				JOINT RightWrist
				{
					OFFSET 0.000000 -0.264825 0.000000 
					CHANNELS 2 Zrotation Xrotation
					End Site
					{
						OFFSET 0.006600 -0.176220 0.000990 
					}
				}
			}
		}
		JOINT LeftShoulder
		{
			OFFSET 0.019635 0.377685 -0.194865 
			CHANNELS 3 Zrotation Xrotation Yrotation
			JOINT LeftElbow
			{
				OFFSET 0.000000 -0.243375 0.000000 
				CHANNELS 2 Zrotation Yrotation
				JOINT LeftWrist
				{
					OFFSET 0.000000 -0.264825 0.000000 
					CHANNELS 2 Zrotation Xrotation
					End Site
					{
						OFFSET 0.006600 -0.176220 -0.000990 
					}
				}
			}
		}
	}
	JOINT RightHip
	{
		OFFSET 0.052140 -0.069960 0.075570 
		CHANNELS 3 Zrotation Xrotation Yrotation
		JOINT RightKnee
		{
			OFFSET 0.000000 -0.402270 0.000000 
			CHANNELS 1 Zrotation
			JOINT RightAnkle
			{
				OFFSET 0.000000 -0.404085 0.000000 
				CHANNELS 3 Zrotation Xrotation Yrotation
				End Site
				{
					OFFSET 0.204105 -0.089430 0.008415 
				}
			}
		}
	}
	JOINT LeftHip
	{
		OFFSET 0.052140 -0.069960 -0.075570 
		CHANNELS 3 Zrotation Xrotation Yrotation
		JOINT LeftKnee
		{
			OFFSET 0.000000 -0.402270 0.000000 
			CHANNELS 1 Zrotation
			JOINT LeftAnkle
			{
				OFFSET 0.000000 -0.404085 0.000000 
				CHANNELS 3 Zrotation Xrotation Yrotation
				End Site
				{
					OFFSET 0.204105 -0.089430 -0.008415 
				}
			}
		}
	}
}
MOTION
Frames: 22
Frame Time: 0.02
0.38318 -0.14935 -0.4846 206.90134 -26.79974 4.36121 43.31624 10.60375 24.74888 3.09711 1.26301 -2.11994 96.25556 4.98861 53.96995 39.04541 133.17952 -50.85386 -9.55976 96.15778 39.85462 -47.71119 63.02558 -23.08113 26.21584 14.78904 55.67817 -10.05225 -17.93045 -70.27296 -5.65831 -3.38998 -3.82961 68.23903 23.92866 -5.44144 -37.20685 -16.9971 3.30434 4.39385
0.38199 -0.14953 -0.48377 206.98107 -26.74902 4.41354 43.42456 10.57302 24.89031 3.3996 0.62838 -2.11994 96.45196 5.01445 54.28353 39.00909 133.1726 -50.79733 -9.55367 95.34214 39.45027 -46.17331 63.25317 -36.8582 18.44541 13.92858 55.52433 -10.09312 -17.87662 -70.29012 -5.66281 -3.39595 -3.83252 68.20145 23.80007 -5.63287 -37.3658 -17.01278 3.29515 4.38983
0.38072 -0.14968 -0.48301 207.08073 -26.67132 4.4581 43.53633 10.50982 25.01442 3.66329 0.09299 -2.11994 96.60796 5.04273 54.62329 38.98135 133.18262 -50.77284 -9.57527 94.34036 38.90432 -44.32298 63.53169 -54.48762 8.49083 12.82249 55.3282 -10.12221 -17.83995 -70.29327 -5.66876 -3.40375 -3.83628 68.13437 23.64682 -5.882 -37.5051 -17.0262 3.28713 4.38622
0.37949 -0.14985 -0.48222 207.17099 -26.60509 4.50486 43.64458 10.46031 25.14584 3.94115 -0.48271 -2.11994 96.77983 5.07251 54.94194 38.95469 133.18612 -50.73719 -9.58595 93.47551 38.46044 -42.73073 63.78967 -69.97463 -0.28943 11.85969 55.14995 -10.15664 -17.79873 -70.30134 -5.67384 -3.41045 -3.83954 68.08042 23.51212 -6.08688 -37.65098 -17.0394 3.27838 4.38224
0.37823 -0.15002 -0.48139 207.26293 -26.54141 4.55699 43.76175 10.41476 25.27978 4.23171 -1.07902 -2.11994 96.9612 5.09109 55.30133 38.90725 133.18487 -50.68734 -9.58949 92.39075 37.85949 -40.65724 64.03769 -87.13585 -9.853 10.76241 54.9753 -10.19118 -17.74504 -70.31462 -5.67974 -3.41818 -3.84327 68.02678 23.34758 -6.36504 -37.80692 -17.05761 3.27042 4.37902
0.37703 -0.15017 -0.48067 207.35608 -26.46636 4.59602 43.86077 10.35348 25.40423 4.48692 -1.60803 -2.11994 97.11357 5.13303 55.58134 38.90501 133.1971 -50.67449 -9.61398 91.71597 37.5468 -39.49875 64.31647 -101.71027 -18.2885 9.88662 54.78418 -10.22225 -17.72061 -70.31406 -5.68434 -3.42428 -3.84625 67.9659 23.23832 -6.50724 -37.93697 -17.06502 3.26115 4.37436
0.37604 -0.15025 -0.48023 207.44715 -26.36566 4.60295 43.90995 10.25612 25.50739 4.65884 -1.98362 -2.11994 97.19523 5.24581 55.63519 39.02704 133.24677 -50.75717 -9.69639 92.26252 38.11983 -41.06516 64.68894 -108.27879 -23.18608 9.69015 54.55426 -10.2519 -17.77674 -70.2787 -5.68449 -3.42483 -3.84666 67.89122 23.29497 -6.23594 -38.00277 -17.04205 3.24753 4.36526
0.37513 -0.1503 -0.4799 207.53898 -26.25456 4.59663 43.94029 10.1441 25.60134 4.7957 -2.29358 -2.11994 97.24907 5.38038 55.60761 39.19471 133.30871 -50.8755 -9.79791 93.22081 38.97813 -43.54133 65.087 -112.09432 -26.85168 9.72392 54.31004 -10.2776 -17.86106 -70.23002 -5.68338 -3.42379 -3.84634 67.81054 23.40674 -5.82999 -38.04267 -17.00847 3.23262 4.35475
0.3742 -0.15037 -0.47953 207.63055 -26.14904 4.59506 43.97865 10.03936 25.69919 4.94616 -2.62808 -2.11994 97.31643 5.50114 55.61802 39.33947 133.36206 -50.97704 -9.88611 93.96182 39.66994 -45.52072 65.45927 -117.1161 -31.00703 9.64742 54.07519 -10.30163 -17.92948 -70.18753 -5.68317 -3.42386 -3.84656 67.73341 23.4884 -5.50201 -38.09296 -16.98061 3.2186 4.34513
0.37322 -0.15044 -0.47913 207.72173 -26.03952 4.59867 44.02011 9.93132 25.7981 5.10622 -2.98076 -2.11994 97.3797 5.64039 55.62722 39.49055 133.42832 -51.08325 -9.99418 94.82179 40.51172 -47.83871 65.89215 -122.46185 -35.53358 9.58585 53.82723 -10.33964 -18.01071 -70.14387 -5.68161 -3.42234 -3.84595 67.65185 23.59034 -5.10686 -38.1487 -16.94914 3.2034 4.33453
0.37235 -0.15049 -0.47881 207.81456 -25.93554 4.58834 44.04973 9.82655 25.89228 5.23701 -3.28212 -2.11994 97.44413 5.74388 55.61675 39.64313 133.47089 -51.18645 -10.06584 95.53651 41.11145 -49.67441 66.20536 -126.4289 -38.96744 9.55138 53.60307 -10.34806 -18.07276 -70.09976 -5.68254 -3.42373 -3.84686 67.57835 23.66373 -4.81682 -38.18679 -16.92233 3.19029 4.32557
0.37174 -0.15048 -0.47868 207.90386 -25.85523 4.54341 44.05831 9.73924 25.98047 5.30794 -3.45124 -2.11994 97.52989 5.76321 55.59326 39.75528 133.44012 -51.28329 -10.02501 95.73072 40.96776 -49.9328 66.17233 -127.23934 -39.65943 9.53416 53.45431 -10.27284 -18.0663 -70.05713 -5.69078 -3.43376 -3.85221 67.53005 23.64272 -4.8674 -38.186 -16.91413 3.1837 4.32185
0.37123 -0.15044 -0.47863 207.99624 -25.77992 4.48472 44.05422 9.65496 26.06335 5.34827 -3.57282 -2.11994 97.61601 5.74168 55.5489 39.87379 133.38551 -51.37337 -9.94793 95.76905 40.57244 -49.68029 66.01992 -126.74147 -39.28764 9.53777 53.32911 -10.16844 -18.04117 -70.01468 -5.70155 -3.44675 -3.8591 67.49006 23.59166 -5.02489 -38.16772 -16.91039 3.17916 4.31973
0.37069 -0.15042 -0.47856 208.09219 -25.69862 4.43204 44.05137 9.5663 26.14568 5.395 -3.72083 -2.11994 97.69458 5.72631 55.49959 40.01094 133.3455 -51.45986 -9.89224 95.89186 40.29633 -49.67832 65.92768 -126.8391 -39.40945 9.53386 53.18919 -10.0795 -18.03011 -69.97258 -5.71106 -3.45826 -3.86522 67.4453 23.55582 -5.12169 -38.15532 -16.90257 3.17347 4.31664
0.37009 -0.15038 -0.47844 208.16688 -25.63256 4.3803 44.0672 9.48987 26.24042 5.47316 -3.84565 -2.11994 97.8028 5.76574 55.5073 40.05783 133.29172 -51.57722 -9.81709 95.97106 40.00909 -49.6304 65.80977 -126.84203 -39.44867 9.52943 53.06543 -9.98164 -17.9962 -69.92816 -5.72092 -3.47026 -3.87159 67.40403 23.51508 -5.26483 -38.15099 -16.90311 3.1688 4.31461
0.36963 -0.15037 -0.47844 208.28698 -25.53617 4.32303 44.04104 9.38878 26.3079 5.47781 -4.00894 -2.11994 97.85038 5.67896 55.39372 40.29483 133.2587 -51.62635 -9.77286 96.09908 39.68222 -49.54504 65.71865 -126.76337 -39.42073 9.52828 52.91411 -9.89484 -18.00542 -69.88881 -5.73072 -3.482 -3.87784 67.35814 23.47693 -5.3387 -38.12572 -16.88736 3.16234 4.31067
0.3695 -0.15044 -0.47868 208.52802 -25.3542 4.25819 43.90494 9.22002 26.30407 5.29788 -4.2852 -2.11994 97.72527 5.2721 54.93818 41.0435 133.30653 -51.50379 -9.8293 96.39556 39.3008 -49.47706 65.71299 -126.81619 -39.48921 9.52848 52.67851 -9.85129 -18.13525 -69.86333 -5.73935 -3.49186 -3.88315 67.29228 23.45087 -5.19624 -38.04974 -16.82654 3.1519 4.30192
0.3695 -0.15055 -0.47904 208.8151 -25.14181 4.18749 43.72661 9.02625 26.27271 5.04325 -4.60287 -2.11994 97.54037 4.7368 54.36366 41.98426 133.37254 -51.30947 -9.91684 96.74533 38.88807 -49.38519 65.74122 -126.83852 -39.52848 9.5306 52.41503 -9.81877 -18.30946 -69.84301 -5.74789 -3.50144 -3.88832 67.22242 23.42848 -4.98184 -37.95286 -16.74919 3.13937 4.29108
0.36945 -0.15065 -0.47936 209.08384 -24.94366 4.11675 43.56574 8.84319 26.25201 4.81571 -4.90541 -2.11994 97.38624 4.24714 53.85235 42.84577 133.41877 -51.13833 -9.98585 97.07164 38.49254 -49.30256 65.76592 -126.86438 -39.57328 9.53242 52.16582 -9.77769 -18.46533 -69.82052 -5.75674 -3.51143 -3.8937 67.15789 23.40594 -4.79903 -37.86387 -16.67863 3.12676 4.28059
0.36938 -0.15072 -0.47961 209.3428 -24.74351 4.05707 43.41156 8.66281 26.23823 4.61566 -5.19154 -2.11994 97.21641 3.80679 53.3029 43.67755 133.5135 -51.00813 -10.07213 97.38967 38.07561 -49.20986 65.73791 -126.88694 -39.614 9.53272 51.91015 -9.75095 -18.61324 -69.79744 -5.76457 -3.52034 -3.89854 67.07904 23.37662 -4.62039 -37.78121 -16.6107 3.11831 4.2725
0.36938 -0.15085 -0.48005 209.63176 -24.54078 3.97298 43.2338 8.47109 26.20447 4.34147 -5.52124 -2.11994 97.06574 3.23755 52.80335 44.61177 133.51095 -50.77404 -10.13036 97.73945 37.6994 -49.13858 65.82738 -126.92595 -39.66892 9.53632 51.66164 -9.69686 -18.78802 -69.77659 -5.77446 -3.53137 -3.90444 67.02867 23.36186 -4.41979 -37.68043 -16.53405 3.10098 4.25912
0.36957 -0.15111 -0.48096 210.00295 -24.33371 3.82438 42.9995 8.25235 26.11447 3.8775 -5.97048 -2.11994 96.97683 2.31157 52.48527 45.82512 133.2436 -50.28625 -10.10304 98.16508 37.44117 -49.137 66.24979 -127.03291 -39.78919 9.54816 51.43411 -9.5689 -19.03074 -69.76225 -5.79019 -3.54855 -3.91335 67.06061 23.39392 -4.13007 -37.53646 -16.43098 3.057 4.22982
